<?xml version="1.0" standalone="no"?>
<!DOCTYPE svg PUBLIC "-//W3C//DTD SVG 20010904//EN"
 "http://www.w3.org/TR/2001/REC-SVG-20010904/DTD/svg10.dtd">
<svg version="1.0" xmlns="http://www.w3.org/2000/svg"
 width="512.000000pt" height="512.000000pt" viewBox="0 0 512.000000 512.000000"
 preserveAspectRatio="xMidYMid meet">
<g transform="translate(0.000000,512.000000) scale(0.100000,-0.100000)"
fill="#1d22a5" stroke="none">
<path d="M2706 4899 c-22 -5 -54 -20 -72 -34 -42 -32 -2152 -2564 -2181 -2617
-34 -62 -32 -148 6 -213 16 -27 38 -58 49 -68 51 -46 47 -46 960 -47 817 0
863 -1 858 -17 -11 -39 -189 -1422 -188 -1469 1 -64 27 -118 81 -167 53 -47
106 -62 176 -47 30 6 69 21 87 33 42 29 2160 2568 2188 2623 13 27 20 60 20
100 0 75 -41 151 -102 191 -42 28 -42 28 -920 31 -828 2 -879 3 -874 20 11 38
188 1421 188 1468 -1 93 -69 183 -156 209 -55 17 -64 17 -120 4z m145 -65 c8
-8 19 -11 24 -7 4 5 5 2 1 -4 -4 -7 -3 -13 2 -13 15 0 48 -61 56 -101 6 -32
-14 -208 -64 -579 -20 -145 -39 -304 -46 -370 -2 -19 -8 -64 -14 -100 -22
-135 -50 -367 -50 -411 0 -36 5 -51 26 -70 26 -24 26 -24 867 -26 463 -1 853
-5 866 -8 68 -17 130 -106 125 -177 -3 -45 -34 -115 -63 -145 -11 -12 -48 -55
-82 -95 -33 -40 -77 -93 -97 -117 -20 -24 -40 -49 -45 -56 -4 -8 -20 -27 -35
-42 -28 -30 -38 -42 -107 -128 -22 -27 -43 -52 -46 -55 -4 -3 -34 -39 -68 -80
-34 -41 -81 -97 -104 -124 -23 -27 -44 -52 -45 -57 -2 -5 -17 -24 -34 -42 -40
-43 -57 -62 -109 -127 -24 -30 -54 -66 -65 -80 -12 -14 -39 -46 -60 -71 -22
-25 -57 -67 -79 -94 -22 -26 -43 -53 -48 -60 -4 -8 -20 -27 -35 -42 -15 -16
-36 -40 -47 -54 -34 -42 -109 -133 -131 -159 -12 -14 -39 -46 -60 -71 -22 -25
-57 -67 -79 -94 -22 -26 -43 -53 -48 -60 -4 -8 -20 -27 -35 -42 -15 -16 -36
-40 -47 -54 -34 -42 -109 -133 -131 -159 -12 -14 -39 -46 -60 -71 -22 -25 -57
-67 -79 -94 -22 -26 -43 -53 -48 -60 -4 -8 -20 -26 -35 -42 -15 -15 -43 -48
-62 -72 -142 -179 -200 -236 -257 -251 -52 -13 -116 -5 -134 16 -6 7 -16 11
-23 7 -6 -3 -8 -3 -4 1 4 5 -3 18 -16 30 -42 39 -50 97 -32 237 20 160 82 642
96 739 6 41 12 91 15 110 2 19 15 122 29 229 33 249 33 271 0 302 -26 24 -26
24 -888 29 -863 5 -863 5 -898 32 -91 70 -95 204 -9 295 11 12 68 79 126 150
58 70 118 142 133 158 15 17 54 64 87 105 33 41 65 80 71 85 6 6 40 46 75 89
35 44 81 98 101 120 21 23 38 47 38 54 0 6 4 12 9 12 5 0 44 44 88 98 43 53
81 99 84 102 3 3 54 64 113 135 59 72 119 144 134 160 15 17 54 64 87 105 33
41 63 77 66 80 3 3 54 64 113 135 59 72 119 144 134 160 15 17 54 64 87 105
33 41 63 77 66 80 3 3 54 64 113 135 58 72 117 141 130 155 13 14 47 54 76 90
139 172 184 218 233 237 39 15 126 7 148 -13z"/>
<path d="M2431 3987 c-24 -11 -222 -229 -216 -235 2 -2 -11 -18 -28 -35 -18
-18 -45 -50 -62 -71 -16 -21 -39 -48 -50 -60 -34 -39 -109 -127 -199 -236 -48
-58 -107 -127 -131 -155 -58 -67 -170 -200 -220 -260 -22 -27 -58 -69 -80 -93
-22 -25 -38 -45 -35 -46 2 -1 -11 -17 -30 -37 -19 -20 -44 -47 -55 -60 -11
-13 -57 -67 -101 -119 -162 -190 -176 -217 -133 -256 20 -18 51 -19 774 -24
744 -5 754 -5 782 -26 15 -11 37 -37 48 -57 19 -36 19 -36 -38 -479 -75 -582
-73 -562 -53 -593 9 -14 25 -25 37 -25 20 0 89 63 149 138 19 24 40 50 47 57
13 14 160 192 201 244 15 19 47 57 72 85 25 28 63 74 85 101 22 28 43 52 46
55 6 6 143 174 176 217 12 15 45 53 72 83 28 30 51 58 51 61 0 4 22 31 50 60
27 29 48 54 46 57 -2 2 10 18 28 35 17 18 69 79 116 136 257 314 253 307 208
346 -22 19 -44 20 -753 25 -829 6 -771 -1 -813 90 -28 62 -28 109 3 345 14
105 38 293 55 418 35 264 35 275 14 305 -17 25 -29 27 -63 9z m39 -58 c-18
-98 -120 -898 -120 -938 0 -53 55 -159 98 -187 20 -14 56 -25 95 -29 34 -3
374 -5 755 -3 380 2 692 2 692 1 0 -2 -51 -63 -112 -136 -152 -179 -1118
-1342 -1191 -1434 -33 -40 -61 -73 -64 -73 -3 0 -3 10 0 23 12 47 131 965 131
1014 1 42 -5 59 -29 94 -17 24 -46 52 -65 64 -34 20 -47 20 -802 20 -423 0
-767 3 -765 6 5 12 1381 1638 1384 1635 2 -1 -1 -27 -7 -57z"/>
</g>
</svg>
